# xmcd
#
# Track frame offsets:
#	150
#	18161
#	37845
#	65495
#
# Disc length: 1813 seconds
#
# Revision: 1
# Processed by: cddbd v1.4PL0 Copyright (c) Steve Scherf et al.
# Submitted via: EasyCDDAExtractor 5.0.7
#
DISCID=25071304
DTITLE=Angie Brown - Life Story
DYEAR=2000
DGENRE=soul
TTITLE0=Life Story [album version - radio edit]
TTITLE1=Life Story [full crew hip hop mix]
TTITLE2=Life Story [club 69 future mix - radio edit]
TTITLE3=Life Story [enhanced video version]
EXTD=
EXTT0=
EXTT1=
EXTT2=
EXTT3=
PLAYORDER=
